# xmcd
# 
# Track frame offsets:
#     150
#     21032
#     61133
#     76076
#     130122
#     142905
#     157250
#     174986
#     181620
#     209737
# 
# Disc length: 2986
# 
# Revision: 1
# Processed by: cddbd v1.5.2PL0 Copyright (c) Steve Scherf et al.
# Submitted via: BonkEnc v1.0.8
# 
DISCID=7b0ba80a
DTITLE=Brian Blade - Season Of Changes
DYEAR=2007
DGENRE=Contemporary Jazz
TTITLE0=Rubylou's Lullaby
TTITLE1=Return Of The Prodigal Son
TTITLE2=Stoner Hill
TTITLE3=Season Of Changes
TTITLE4=Most Precious One
TTITLE5=Most Precious One (Prodigy)
TTITLE6=Improvisation
TTITLE7=Alpha And Omega
TTITLE8=Omni
TTITLE9=Patron Saint Of Girls - Live
EXTD=YEAR: 2008
EXTT0=
EXTT1=
EXTT2=
EXTT3=
EXTT4=
EXTT5=
EXTT6=
EXTT7=
EXTT8=
EXTT9=
PLAYORDER=
